<?xml version="1.0" encoding="UTF-8" standalone="no"?>
<!-- Created with Inkscape (http://www.inkscape.org/) -->

<svg
   version="1.1"
   id="svg2"
   xml:space="preserve"
   width="421.20001"
   height="842.20001"
   viewBox="0 0 421.20002 842.20001"
   sodipodi:docname="sidebar-background.svg"
   inkscape:version="1.3 (0e150ed6c4, 2023-07-21)"
   inkscape:export-filename="sidebar-background.png"
   inkscape:export-xdpi="96"
   inkscape:export-ydpi="96"
   xmlns:inkscape="http://www.inkscape.org/namespaces/inkscape"
   xmlns:sodipodi="http://sodipodi.sourceforge.net/DTD/sodipodi-0.dtd"
   xmlns="http://www.w3.org/2000/svg"
   xmlns:svg="http://www.w3.org/2000/svg"
   xmlns:rdf="http://www.w3.org/1999/02/22-rdf-syntax-ns#"
   xmlns:cc="http://creativecommons.org/ns#"
   xmlns:dc="http://purl.org/dc/elements/1.1/"><metadata
     id="metadata8"><rdf:RDF><cc:Work
         rdf:about=""><dc:format>image/svg+xml</dc:format><dc:type
           rdf:resource="http://purl.org/dc/dcmitype/StillImage" /></cc:Work></rdf:RDF></metadata><defs
     id="defs6"><clipPath
       clipPathUnits="userSpaceOnUse"
       id="clipPath18"><path
         d="M 0,562.874 H 1620.71 V 0 H 0 Z"
         id="path16"
         inkscape:connector-curvature="0" /></clipPath></defs><sodipodi:namedview
     pagecolor="#ffffff"
     bordercolor="#666666"
     borderopacity="1"
     objecttolerance="10"
     gridtolerance="10"
     guidetolerance="10"
     inkscape:pageopacity="0"
     inkscape:pageshadow="2"
     inkscape:window-width="1920"
     inkscape:window-height="1009"
     id="namedview4"
     showgrid="false"
     showguides="true"
     inkscape:guide-bbox="true"
     inkscape:object-paths="true"
     inkscape:snap-intersection-paths="true"
     inkscape:snap-smooth-nodes="true"
     inkscape:snap-midpoints="true"
     inkscape:snap-object-midpoints="true"
     inkscape:snap-bbox="true"
     inkscape:snap-grids="false"
     inkscape:bbox-paths="true"
     inkscape:bbox-nodes="true"
     inkscape:snap-bbox-midpoints="true"
     inkscape:zoom="0.65053824"
     inkscape:cx="307.43773"
     inkscape:cy="753.99104"
     inkscape:current-layer="layer4"
     inkscape:snap-others="true"
     inkscape:snap-global="true"
     showborder="true"
     inkscape:snap-text-baseline="true"
     inkscape:snap-center="true"
     inkscape:pagecheckerboard="false"
     inkscape:snap-bbox-edge-midpoints="true"
     inkscape:showpageshadow="2"
     inkscape:deskcolor="#d1d1d1"
     inkscape:window-x="1912"
     inkscape:window-y="-8"
     inkscape:window-maximized="1" /><g
     inkscape:groupmode="layer"
     id="layer4"
     inkscape:label="4"
     style="display:inline"><rect
       style="fill:#000000;stroke-width:1.60492"
       id="rect1"
       width="421.20001"
       height="842.20001"
       x="0"
       y="0" /><g
       id="g4986"
       transform="matrix(0.63581625,0,0,0.63581625,11.741006,1209.7074)"><g
         id="g4589"><path
           id="path4951"
           d="m 65.1875,-1013.1426 c -15.654944,0 -28.523438,12.8685 -28.523438,28.52346 v 193.22461 c 0,15.65494 12.868494,28.52344 28.523438,28.52344 h 396.79688 c -6.63933,-5.92593 -13.48294,-11.59704 -20.51954,-17 H 65.1875 c -6.530997,0 -11.523438,-4.99244 -11.523438,-11.52344 v -193.22461 c 0,-6.531 4.992441,-11.52344 11.523438,-11.52344 h 376.27734 c 7.03592,-5.40252 13.87885,-11.07472 20.51758,-17.00002 z"
           style="color:#000000;font-style:normal;font-variant:normal;font-weight:normal;font-stretch:normal;font-size:medium;line-height:normal;font-family:sans-serif;font-variant-ligatures:normal;font-variant-position:normal;font-variant-caps:normal;font-variant-numeric:normal;font-variant-alternates:normal;font-feature-settings:normal;text-indent:0;text-align:start;text-decoration:none;text-decoration-line:none;text-decoration-style:solid;text-decoration-color:#000000;letter-spacing:normal;word-spacing:normal;text-transform:none;writing-mode:lr-tb;direction:ltr;text-orientation:mixed;dominant-baseline:auto;baseline-shift:baseline;text-anchor:start;white-space:normal;shape-padding:0;clip-rule:nonzero;display:inline;overflow:visible;visibility:visible;opacity:1;isolation:auto;mix-blend-mode:normal;color-interpolation:sRGB;color-interpolation-filters:linearRGB;solid-color:#000000;solid-opacity:1;vector-effect:none;fill:#ff0000;fill-opacity:1;fill-rule:evenodd;stroke:none;stroke-width:17;stroke-linecap:square;stroke-linejoin:round;stroke-miterlimit:4;stroke-dasharray:none;stroke-dashoffset:0;stroke-opacity:1;paint-order:markers fill stroke;color-rendering:auto;image-rendering:auto;shape-rendering:auto;text-rendering:auto;enable-background:accumulate"
           inkscape:connector-curvature="0" /><path
           id="rect4923-3-2-8"
           d="m 511.08789,-1013.1426 29.44531,17.00002 h 28.98828 c 6.531,0 11.52344,4.99244 11.52344,11.52344 v 193.22461 c 0,6.531 -4.99244,11.52344 -11.52344,11.52344 H 540.5332 l -29.44531,17 h 58.43359 c 15.65495,0 28.52344,-12.8685 28.52344,-28.52344 v -193.22461 c 0,-15.65496 -12.86849,-28.52346 -28.52344,-28.52346 z"
           style="color:#000000;font-style:normal;font-variant:normal;font-weight:normal;font-stretch:normal;font-size:medium;line-height:normal;font-family:sans-serif;font-variant-ligatures:normal;font-variant-position:normal;font-variant-caps:normal;font-variant-numeric:normal;font-variant-alternates:normal;font-feature-settings:normal;text-indent:0;text-align:start;text-decoration:none;text-decoration-line:none;text-decoration-style:solid;text-decoration-color:#000000;letter-spacing:normal;word-spacing:normal;text-transform:none;writing-mode:lr-tb;direction:ltr;text-orientation:mixed;dominant-baseline:auto;baseline-shift:baseline;text-anchor:start;white-space:normal;shape-padding:0;clip-rule:nonzero;display:inline;overflow:visible;visibility:visible;opacity:1;isolation:auto;mix-blend-mode:normal;color-interpolation:sRGB;color-interpolation-filters:linearRGB;solid-color:#000000;solid-opacity:1;vector-effect:none;fill:#ff0000;fill-opacity:1;fill-rule:evenodd;stroke:none;stroke-width:17;stroke-linecap:square;stroke-linejoin:round;stroke-miterlimit:4;stroke-dasharray:none;stroke-dashoffset:0;stroke-opacity:1;paint-order:markers fill stroke;color-rendering:auto;image-rendering:auto;shape-rendering:auto;text-rendering:auto;enable-background:accumulate"
           inkscape:connector-curvature="0" /><path
           d="m 144.5682,-797.00714 q -7.9625,0 -11.03375,-7.62125 L 72.4507,-960.80715 q -1.365,-3.52625 -1.365,-6.1425 0,-2.5025 0.91,-4.66375 0.91,-2.275 2.5025,-3.8675 1.70625,-1.70625 3.867501,-2.61625 2.16125,-0.91 4.7775,-0.91 7.9625,0 11.1475,7.16625 l 50.277499,129.33376 50.2775,-129.33376 q 2.73,-7.16625 11.1475,-7.16625 2.5025,0 4.66375,0.91 2.275,0.91 3.8675,2.61625 1.70625,1.5925 2.61625,3.8675 0.91,2.16125 0.91,4.66375 0,2.9575 -1.365,6.1425 l -61.08375,156.17876 q -3.07125,7.62125 -11.03375,7.62125 z"
           style="font-style:normal;font-variant:normal;font-weight:bold;font-stretch:normal;font-size:232.96px;line-height:1.25;font-family:Comfortaa;-inkscape-font-specification:'Comfortaa, Bold';font-variant-ligatures:normal;font-variant-caps:normal;font-variant-numeric:normal;font-feature-settings:normal;text-align:start;letter-spacing:0px;word-spacing:0px;writing-mode:lr-tb;text-anchor:start;fill:#ff0000;fill-opacity:1;stroke:none;stroke-width:5.824"
           id="path4693"
           inkscape:connector-curvature="0" /><path
           d="M 258.88695,-808.83714 V -950.4559 q -3.4125,1.1375 -7.16625,2.61625 -3.75375,1.365 -6.825,1.365 -5.11875,0 -8.53125,-3.29875 -3.29875,-3.4125 -3.29875,-8.53125 0,-3.64 1.82,-6.48375 1.93375,-2.84375 5.80125,-4.66375 l 26.04875,-8.645 q 2.0475,-0.79625 4.095,-0.79625 5.11875,0 8.4175,3.52625 3.4125,3.4125 3.4125,8.4175 v 158.11251 q 0,4.89125 -3.52625,8.4175 -3.4125,3.4125 -8.4175,3.4125 -4.89125,0 -8.4175,-3.4125 -3.4125,-3.52625 -3.4125,-8.4175 z"
           style="font-style:normal;font-variant:normal;font-weight:bold;font-stretch:normal;font-size:232.96px;line-height:1.25;font-family:Comfortaa;-inkscape-font-specification:'Comfortaa, Bold';font-variant-ligatures:normal;font-variant-caps:normal;font-variant-numeric:normal;font-feature-settings:normal;text-align:start;letter-spacing:0px;word-spacing:0px;writing-mode:lr-tb;text-anchor:start;fill:#ff0000;fill-opacity:1;stroke:none;stroke-width:5.824"
           id="path4695"
           inkscape:connector-curvature="0" /><path
           d="m 80.607026,-683.71084 q 1.87539,0 3.196688,1.3213 1.321297,1.3213 1.321297,3.19669 0,1.87539 -1.321297,3.19669 -1.321298,1.32129 -3.196688,1.32129 H 41.181215 q -0.980318,0 -1.790145,-0.34098 -0.809828,-0.34098 -1.449165,-0.93769 -0.596715,-0.63934 -0.937695,-1.44917 -0.34098,-0.80982 -0.34098,-1.79014 v -59.16003 q 0,-0.93769 0.34098,-1.74752 0.34098,-0.85245 0.937695,-1.44917 0.639337,-0.63933 1.449165,-0.98031 0.809827,-0.34098 1.790145,-0.34098 h 39.425811 q 1.87539,0 3.196688,1.32129 1.321297,1.3213 1.321297,3.19669 0,1.87539 -1.321297,3.19669 -1.321298,1.3213 -3.196688,1.3213 H 45.699199 v 20.54404 h 25.06203 q 1.87539,0 3.196687,1.3213 1.321298,1.32129 1.321298,3.19668 0,1.87539 -1.321298,3.19669 -1.321297,1.3213 -3.196687,1.3213 h -25.06203 v 20.54404 z"
           style="font-style:normal;font-variant:normal;font-weight:bold;font-stretch:normal;font-size:87.2909px;line-height:1.25;font-family:Comfortaa;-inkscape-font-specification:'Comfortaa, Bold';font-variant-ligatures:normal;font-variant-caps:normal;font-variant-numeric:normal;font-feature-settings:normal;text-align:start;letter-spacing:0px;word-spacing:0px;writing-mode:lr-tb;text-anchor:start;fill:#ff0000;fill-opacity:1;stroke:none;stroke-width:2.18227"
           id="path4700"
           inkscape:connector-curvature="0" /><path
           d="m 91.262653,-679.19285 v -59.16003 q 0,-0.93769 0.34098,-1.74752 0.34098,-0.85245 0.937695,-1.44917 0.639337,-0.63933 1.449165,-0.98031 0.809827,-0.34098 1.790145,-0.34098 2.003257,0 3.495045,1.66227 l 38.019267,48.88801 v -46.0323 q 0,-1.87539 1.3213,-3.19669 1.3213,-1.32129 3.19669,-1.32129 1.87539,0 3.19668,1.32129 1.3213,1.3213 1.3213,3.19669 v 59.16003 q 0,0.98032 -0.34098,1.79014 -0.34098,0.80983 -0.98032,1.44917 -0.59671,0.59671 -1.44916,0.93769 -0.80983,0.34098 -1.74752,0.34098 -2.00326,0 -3.45243,-1.57703 l -38.06189,-48.888 v 45.94705 q 0,1.87539 -1.321295,3.19669 -1.321297,1.32129 -3.196687,1.32129 -1.87539,0 -3.196688,-1.32129 -1.321297,-1.3213 -1.321297,-3.19669 z"
           style="font-style:normal;font-variant:normal;font-weight:bold;font-stretch:normal;font-size:87.2909px;line-height:1.25;font-family:Comfortaa;-inkscape-font-specification:'Comfortaa, Bold';font-variant-ligatures:normal;font-variant-caps:normal;font-variant-numeric:normal;font-feature-settings:normal;text-align:start;letter-spacing:0px;word-spacing:0px;writing-mode:lr-tb;text-anchor:start;fill:#ff0000;fill-opacity:1;stroke:none;stroke-width:2.18227"
           id="path4702"
           inkscape:connector-curvature="0" /><path
           d="m 209.62533,-685.50098 q 0,1.79014 -1.40654,3.23931 -9.50482,7.5868 -21.43912,7.5868 -14.15067,0 -24.12433,-9.97366 -9.97367,-9.97367 -9.97367,-24.12434 0,-14.10804 9.97367,-24.08171 10.01628,-10.01628 24.12433,-10.01628 12.10479,0 21.86534,7.9704 1.19343,1.10819 1.19343,3.11145 0,0.98031 -0.34098,1.79014 -0.34098,0.80983 -0.98031,1.44917 -0.59672,0.59671 -1.44917,0.93769 -0.80983,0.34098 -1.74752,0.34098 -1.74752,0 -3.11144,-1.27867 -3.23931,-2.55735 -7.16058,-3.92127 -3.87865,-1.36392 -8.26877,-1.36392 -10.39989,0 -17.77358,7.37369 -7.28845,7.28845 -7.28845,17.68833 0,10.44252 7.28845,17.73096 7.33107,7.33107 17.77358,7.33107 7.71467,0 13.80969,-4.04913 v -13.21298 h -11.76381 q -1.91801,0 -3.23931,-1.27867 -1.27867,-1.3213 -1.27867,-3.23931 0,-0.9377 0.34098,-1.74753 0.34098,-0.85245 0.93769,-1.44916 0.63934,-0.63934 1.44917,-0.98032 0.80982,-0.34098 1.79014,-0.34098 h 16.32442 q 0.89507,0 1.7049,0.3836 0.80983,0.34098 1.40654,0.98032 0.63934,0.59672 0.98032,1.44917 0.3836,0.80982 0.3836,1.7049 z"
           style="font-style:normal;font-variant:normal;font-weight:bold;font-stretch:normal;font-size:87.2909px;line-height:1.25;font-family:Comfortaa;-inkscape-font-specification:'Comfortaa, Bold';font-variant-ligatures:normal;font-variant-caps:normal;font-variant-numeric:normal;font-feature-settings:normal;text-align:start;letter-spacing:0px;word-spacing:0px;writing-mode:lr-tb;text-anchor:start;fill:#ff0000;fill-opacity:1;stroke:none;stroke-width:2.18227"
           id="path4704"
           inkscape:connector-curvature="0" /><path
           d="m 228.72022,-679.19285 q 0,1.87539 -1.3213,3.19669 -1.3213,1.32129 -3.19669,1.32129 -1.87539,0 -3.19668,-1.32129 -1.3213,-1.3213 -1.3213,-3.19669 v -59.16003 q 0,-1.87539 1.3213,-3.19669 1.32129,-1.32129 3.19668,-1.32129 1.87539,0 3.19669,1.32129 1.3213,1.3213 1.3213,3.19669 z"
           style="font-style:normal;font-variant:normal;font-weight:bold;font-stretch:normal;font-size:87.2909px;line-height:1.25;font-family:Comfortaa;-inkscape-font-specification:'Comfortaa, Bold';font-variant-ligatures:normal;font-variant-caps:normal;font-variant-numeric:normal;font-feature-settings:normal;text-align:start;letter-spacing:0px;word-spacing:0px;writing-mode:lr-tb;text-anchor:start;fill:#ff0000;fill-opacity:1;stroke:none;stroke-width:2.18227"
           id="path4706"
           inkscape:connector-curvature="0" /><path
           d="m 237.2021,-679.19285 v -59.16003 q 0,-0.93769 0.34098,-1.74752 0.34098,-0.85245 0.93769,-1.44917 0.63934,-0.63933 1.44917,-0.98031 0.80983,-0.34098 1.79014,-0.34098 2.00326,0 3.49505,1.66227 l 38.01927,48.88801 v -46.0323 q 0,-1.87539 1.3213,-3.19669 1.32129,-1.32129 3.19668,-1.32129 1.87539,0 3.19669,1.32129 1.3213,1.3213 1.3213,3.19669 v 59.16003 q 0,0.98032 -0.34098,1.79014 -0.34098,0.80983 -0.98032,1.44917 -0.59672,0.59671 -1.44917,0.93769 -0.80982,0.34098 -1.74752,0.34098 -2.00325,0 -3.45242,-1.57703 l -38.06189,-48.888 v 45.94705 q 0,1.87539 -1.3213,3.19669 -1.3213,1.32129 -3.19669,1.32129 -1.87539,0 -3.19668,-1.32129 -1.3213,-1.3213 -1.3213,-3.19669 z"
           style="font-style:normal;font-variant:normal;font-weight:bold;font-stretch:normal;font-size:87.2909px;line-height:1.25;font-family:Comfortaa;-inkscape-font-specification:'Comfortaa, Bold';font-variant-ligatures:normal;font-variant-caps:normal;font-variant-numeric:normal;font-feature-settings:normal;text-align:start;letter-spacing:0px;word-spacing:0px;writing-mode:lr-tb;text-anchor:start;fill:#ff0000;fill-opacity:1;stroke:none;stroke-width:2.18227"
           id="path4708"
           inkscape:connector-curvature="0" /><path
           d="m 342.47968,-683.71084 q 1.87539,0 3.19668,1.3213 1.3213,1.3213 1.3213,3.19669 0,1.87539 -1.3213,3.19669 -1.32129,1.32129 -3.19668,1.32129 h -39.42582 q -0.98031,0 -1.79014,-0.34098 -0.80983,-0.34098 -1.44917,-0.93769 -0.59671,-0.63934 -0.93769,-1.44917 -0.34098,-0.80982 -0.34098,-1.79014 v -59.16003 q 0,-0.93769 0.34098,-1.74752 0.34098,-0.85245 0.93769,-1.44917 0.63934,-0.63933 1.44917,-0.98031 0.80983,-0.34098 1.79014,-0.34098 h 39.42582 q 1.87539,0 3.19668,1.32129 1.3213,1.3213 1.3213,3.19669 0,1.87539 -1.3213,3.19669 -1.32129,1.3213 -3.19668,1.3213 h -34.90783 v 20.54404 h 25.06203 q 1.87539,0 3.19669,1.3213 1.32129,1.32129 1.32129,3.19668 0,1.87539 -1.32129,3.19669 -1.3213,1.3213 -3.19669,1.3213 h -25.06203 v 20.54404 z"
           style="font-style:normal;font-variant:normal;font-weight:bold;font-stretch:normal;font-size:87.2909px;line-height:1.25;font-family:Comfortaa;-inkscape-font-specification:'Comfortaa, Bold';font-variant-ligatures:normal;font-variant-caps:normal;font-variant-numeric:normal;font-feature-settings:normal;text-align:start;letter-spacing:0px;word-spacing:0px;writing-mode:lr-tb;text-anchor:start;fill:#ff0000;fill-opacity:1;stroke:none;stroke-width:2.18227"
           id="path4710"
           inkscape:connector-curvature="0" /><path
           d="m 397.03647,-683.71084 q 1.87539,0 3.19669,1.3213 1.32129,1.3213 1.32129,3.19669 0,1.87539 -1.32129,3.19669 -1.3213,1.32129 -3.19669,1.32129 h -39.42581 q -0.98032,0 -1.79015,-0.34098 -0.80982,-0.34098 -1.44916,-0.93769 -0.59672,-0.63934 -0.9377,-1.44917 -0.34098,-0.80982 -0.34098,-1.79014 v -59.16003 q 0,-0.93769 0.34098,-1.74752 0.34098,-0.85245 0.9377,-1.44917 0.63934,-0.63933 1.44916,-0.98031 0.80983,-0.34098 1.79015,-0.34098 h 39.42581 q 1.87539,0 3.19669,1.32129 1.32129,1.3213 1.32129,3.19669 0,1.87539 -1.32129,3.19669 -1.3213,1.3213 -3.19669,1.3213 h -34.90783 v 20.54404 h 25.06203 q 1.87539,0 3.19669,1.3213 1.3213,1.32129 1.3213,3.19668 0,1.87539 -1.3213,3.19669 -1.3213,1.3213 -3.19669,1.3213 h -25.06203 v 20.54404 z"
           style="font-style:normal;font-variant:normal;font-weight:bold;font-stretch:normal;font-size:87.2909px;line-height:1.25;font-family:Comfortaa;-inkscape-font-specification:'Comfortaa, Bold';font-variant-ligatures:normal;font-variant-caps:normal;font-variant-numeric:normal;font-feature-settings:normal;text-align:start;letter-spacing:0px;word-spacing:0px;writing-mode:lr-tb;text-anchor:start;fill:#ff0000;fill-opacity:1;stroke:none;stroke-width:2.18227"
           id="path4712"
           inkscape:connector-curvature="0" /><path
           d="m 416.64281,-733.83489 v 23.82597 h 11.9343 q 2.47211,0 4.64586,-0.93769 2.17374,-0.9377 3.75078,-2.55735 1.61965,-1.66228 2.55735,-3.7934 0.93769,-2.17375 0.93769,-4.60323 0,-2.47211 -0.93769,-4.64586 -0.9377,-2.17374 -2.55735,-3.7934 -1.61966,-1.61965 -3.79341,-2.55735 -2.17374,-0.93769 -4.60323,-0.93769 z m -9.03597,54.64204 v -59.16003 q 0,-0.93769 0.34098,-1.74752 0.34098,-0.85245 0.9377,-1.44917 0.63934,-0.63933 1.44916,-0.98031 0.80983,-0.34098 1.79015,-0.34098 h 16.45228 q 4.30488,0 8.09828,1.66227 3.83602,1.66228 6.64911,4.51799 2.85571,2.85571 4.51798,6.69173 1.66228,3.7934 1.66228,8.09828 0,2.81308 -0.72458,5.4983 -0.68196,2.64259 -2.0885,5.02945 -1.36392,2.34424 -3.45243,4.39012 -2.04588,2.00326 -4.77372,3.53767 l 13.59658,21.78009 q 0.72458,1.19343 0.72458,2.47211 0,0.98032 -0.34098,1.79014 -0.34098,0.80983 -0.98031,1.44917 -0.59672,0.59671 -1.44917,0.93769 -0.80983,0.34098 -1.74752,0.34098 -2.38686,0 -3.87865,-2.21637 l -15.04574,-24.08171 h -12.70151 v 21.7801 q 0,1.87539 -1.32129,3.19669 -1.3213,1.32129 -3.19669,1.32129 -1.87539,0 -3.19669,-1.32129 -1.3213,-1.3213 -1.3213,-3.19669 z"
           style="font-style:normal;font-variant:normal;font-weight:bold;font-stretch:normal;font-size:87.2909px;line-height:1.25;font-family:Comfortaa;-inkscape-font-specification:'Comfortaa, Bold';font-variant-ligatures:normal;font-variant-caps:normal;font-variant-numeric:normal;font-feature-settings:normal;text-align:start;letter-spacing:0px;word-spacing:0px;writing-mode:lr-tb;text-anchor:start;fill:#ff0000;fill-opacity:1;stroke:none;stroke-width:2.18227"
           id="path4714"
           inkscape:connector-curvature="0" /><path
           d="m 470.98652,-679.19285 q 0,1.87539 -1.3213,3.19669 -1.3213,1.32129 -3.19669,1.32129 -1.87539,0 -3.19669,-1.32129 -1.32129,-1.3213 -1.32129,-3.19669 v -59.16003 q 0,-1.87539 1.32129,-3.19669 1.3213,-1.32129 3.19669,-1.32129 1.87539,0 3.19669,1.32129 1.3213,1.3213 1.3213,3.19669 z"
           style="font-style:normal;font-variant:normal;font-weight:bold;font-stretch:normal;font-size:87.2909px;line-height:1.25;font-family:Comfortaa;-inkscape-font-specification:'Comfortaa, Bold';font-variant-ligatures:normal;font-variant-caps:normal;font-variant-numeric:normal;font-feature-settings:normal;text-align:start;letter-spacing:0px;word-spacing:0px;writing-mode:lr-tb;text-anchor:start;fill:#ff0000;fill-opacity:1;stroke:none;stroke-width:2.18227"
           id="path4716"
           inkscape:connector-curvature="0" /><path
           d="m 479.46839,-679.19285 v -59.16003 q 0,-0.93769 0.34098,-1.74752 0.34098,-0.85245 0.9377,-1.44917 0.63934,-0.63933 1.44916,-0.98031 0.80983,-0.34098 1.79015,-0.34098 2.00326,0 3.49504,1.66227 l 38.01927,48.88801 v -46.0323 q 0,-1.87539 1.3213,-3.19669 1.3213,-1.32129 3.19669,-1.32129 1.87539,0 3.19669,1.32129 1.32129,1.3213 1.32129,3.19669 v 59.16003 q 0,0.98032 -0.34098,1.79014 -0.34098,0.80983 -0.98031,1.44917 -0.59672,0.59671 -1.44917,0.93769 -0.80983,0.34098 -1.74752,0.34098 -2.00326,0 -3.45242,-1.57703 l -38.0619,-48.888 v 45.94705 q 0,1.87539 -1.32129,3.19669 -1.3213,1.32129 -3.19669,1.32129 -1.87539,0 -3.19669,-1.32129 -1.3213,-1.3213 -1.3213,-3.19669 z"
           style="font-style:normal;font-variant:normal;font-weight:bold;font-stretch:normal;font-size:87.2909px;line-height:1.25;font-family:Comfortaa;-inkscape-font-specification:'Comfortaa, Bold';font-variant-ligatures:normal;font-variant-caps:normal;font-variant-numeric:normal;font-feature-settings:normal;text-align:start;letter-spacing:0px;word-spacing:0px;writing-mode:lr-tb;text-anchor:start;fill:#ff0000;fill-opacity:1;stroke:none;stroke-width:2.18227"
           id="path4718"
           inkscape:connector-curvature="0" /><path
           d="m 597.83105,-685.50098 q 0,1.79014 -1.40654,3.23931 -9.50482,7.5868 -21.43912,7.5868 -14.15067,0 -24.12433,-9.97366 -9.97367,-9.97367 -9.97367,-24.12434 0,-14.10804 9.97367,-24.08171 10.01628,-10.01628 24.12433,-10.01628 12.10479,0 21.86534,7.9704 1.19343,1.10819 1.19343,3.11145 0,0.98031 -0.34098,1.79014 -0.34098,0.80983 -0.98032,1.44917 -0.59671,0.59671 -1.44916,0.93769 -0.80983,0.34098 -1.74752,0.34098 -1.74753,0 -3.11145,-1.27867 -3.23931,-2.55735 -7.16058,-3.92127 -3.87864,-1.36392 -8.26876,-1.36392 -10.39989,0 -17.77358,7.37369 -7.28845,7.28845 -7.28845,17.68833 0,10.44252 7.28845,17.73096 7.33107,7.33107 17.77358,7.33107 7.71467,0 13.80969,-4.04913 v -13.21298 h -11.76381 q -1.91801,0 -3.23931,-1.27867 -1.27867,-1.3213 -1.27867,-3.23931 0,-0.9377 0.34098,-1.74753 0.34097,-0.85245 0.93769,-1.44916 0.63934,-0.63934 1.44916,-0.98032 0.80983,-0.34098 1.79015,-0.34098 h 16.32442 q 0.89507,0 1.7049,0.3836 0.80982,0.34098 1.40654,0.98032 0.63934,0.59672 0.98032,1.44917 0.3836,0.80982 0.3836,1.7049 z"
           style="font-style:normal;font-variant:normal;font-weight:bold;font-stretch:normal;font-size:87.2909px;line-height:1.25;font-family:Comfortaa;-inkscape-font-specification:'Comfortaa, Bold';font-variant-ligatures:normal;font-variant-caps:normal;font-variant-numeric:normal;font-feature-settings:normal;text-align:start;letter-spacing:0px;word-spacing:0px;writing-mode:lr-tb;text-anchor:start;fill:#ff0000;fill-opacity:1;stroke:none;stroke-width:2.18227"
           id="path4720"
           inkscape:connector-curvature="0" /></g><path
         inkscape:connector-curvature="0"
         id="path4920"
         d="m 483.54297,-1013 c -2.14932,0.08 -4.25803,0.9187 -5.9043,2.4688 -42.1761,39.71123 -93.01309,69.06423 -148.49219,85.73432 -3.8495,1.15671 -6.48632,4.70101 -6.48632,8.72071 v 56.13867 c 0,4.0197 2.63682,7.5639 6.48632,8.7207 55.4791,16.67 106.31609,46.02112 148.49219,85.73242 2.9267,2.7555 7.31558,3.26772 10.79688,1.25782 l 48.61718,-28.07032 c 3.4812,-2.0098 5.23375,-6.06426 4.31055,-9.97656 -13.3029,-56.3813 -13.3029,-115.08549 0,-171.46679 0.9232,-3.9123 -0.82935,-7.96667 -4.31055,-9.97657 l -48.61718,-28.0703 c -1.52307,-0.8793 -3.22089,-1.2754 -4.89258,-1.2129 z m 10.32617,30.1543 c 1.46784,0.0381 2.94756,0.43098 4.30859,1.21679 l 7.88672,4.55274 c 4.3553,2.5145 5.84653,8.08425 3.33203,12.43945 l -27.16601,47.05274 c -1.6709,2.8943 -1.6232,6.47261 0.125,9.32031 7.6334,12.4259 7.6334,28.08777 0,40.51367 -1.7494,2.8476 -1.7973,6.42406 -0.125,9.31836 l 27.16601,47.05469 c 2.5145,4.3552 1.02327,9.9229 -3.33203,12.4375 l -7.88672,4.55273 c -4.3553,2.5145 -9.92505,1.02327 -12.43945,-3.33203 l -27.16601,-47.05273 c -1.6712,-2.8944 -4.79387,-4.64199 -8.13477,-4.55079 -14.578,0.3977 -28.14144,-7.43215 -35.08594,-20.25585 -1.5914,-2.9389 -4.66366,-4.76954 -8.00586,-4.76954 h -54.33203 c -5.029,0 -9.10742,-4.07842 -9.10742,-9.10742 v -9.10547 c 0,-5.029 4.07842,-9.10547 9.10742,-9.10547 h 54.33203 c 3.3422,0 6.41446,-1.83063 8.00586,-4.76953 6.9445,-12.8237 20.50794,-20.65561 35.08594,-20.25781 3.3409,0.091 6.46357,-1.65453 8.13477,-4.54883 l 27.16601,-47.05273 c 1.72865,-2.99427 4.90162,-4.63469 8.13086,-4.55078 z"
         style="opacity:1;fill:#ff0000;fill-opacity:1;stroke:none;stroke-width:25;stroke-linecap:round;stroke-miterlimit:4;stroke-dasharray:none;stroke-opacity:1;paint-order:stroke markers fill" /></g></g></svg>
