<?xml version="1.0" encoding="UTF-8" standalone="no"?>
<!-- Created with Inkscape (http://www.inkscape.org/) -->

<svg
   version="1.1"
   id="svg2"
   xml:space="preserve"
   width="255"
   height="255"
   viewBox="0 0 255 255"
   sodipodi:docname="sidebar-logo.svg"
   inkscape:version="1.3 (0e150ed6c4, 2023-07-21)"
   xmlns:inkscape="http://www.inkscape.org/namespaces/inkscape"
   xmlns:sodipodi="http://sodipodi.sourceforge.net/DTD/sodipodi-0.dtd"
   xmlns="http://www.w3.org/2000/svg"
   xmlns:svg="http://www.w3.org/2000/svg"
   xmlns:rdf="http://www.w3.org/1999/02/22-rdf-syntax-ns#"
   xmlns:cc="http://creativecommons.org/ns#"
   xmlns:dc="http://purl.org/dc/elements/1.1/"><metadata
     id="metadata8"><rdf:RDF><cc:Work
         rdf:about=""><dc:format>image/svg+xml</dc:format><dc:type
           rdf:resource="http://purl.org/dc/dcmitype/StillImage" /></cc:Work></rdf:RDF></metadata><defs
     id="defs6"><clipPath
       clipPathUnits="userSpaceOnUse"
       id="clipPath18"><path
         d="M 0,562.874 H 1620.71 V 0 H 0 Z"
         id="path16"
         inkscape:connector-curvature="0" /></clipPath></defs><sodipodi:namedview
     pagecolor="#ffffff"
     bordercolor="#666666"
     borderopacity="1"
     objecttolerance="10"
     gridtolerance="10"
     guidetolerance="10"
     inkscape:pageopacity="0"
     inkscape:pageshadow="2"
     inkscape:window-width="1920"
     inkscape:window-height="1009"
     id="namedview4"
     showgrid="false"
     showguides="true"
     inkscape:guide-bbox="true"
     inkscape:object-paths="true"
     inkscape:snap-intersection-paths="true"
     inkscape:snap-smooth-nodes="true"
     inkscape:snap-midpoints="true"
     inkscape:snap-object-midpoints="true"
     inkscape:snap-bbox="true"
     inkscape:snap-grids="false"
     inkscape:bbox-paths="true"
     inkscape:bbox-nodes="true"
     inkscape:snap-bbox-midpoints="true"
     inkscape:zoom="0.65053824"
     inkscape:cx="354.32199"
     inkscape:cy="305.13195"
     inkscape:current-layer="layer4"
     inkscape:snap-others="true"
     inkscape:snap-global="true"
     showborder="false"
     inkscape:snap-text-baseline="true"
     inkscape:snap-center="true"
     inkscape:pagecheckerboard="true"
     inkscape:snap-bbox-edge-midpoints="true"
     inkscape:showpageshadow="2"
     inkscape:deskcolor="#d1d1d1"
     inkscape:window-x="1912"
     inkscape:window-y="-8"
     inkscape:window-maximized="1" /><g
     inkscape:groupmode="layer"
     id="layer4"
     inkscape:label="4"
     style="display:inline"><path
       style="opacity:1;fill:#ff0000;fill-opacity:1;stroke:none;stroke-width:25;stroke-linecap:round;stroke-miterlimit:4;stroke-dasharray:none;stroke-opacity:1;paint-order:stroke markers fill"
       d="m 177.40061,2.268226 c -2.14933,0.08 -4.25607,0.9187 -5.90234,2.4688 -42.17604,39.7113 -93.015035,69.0642 -148.494155,85.7343 -3.84951,1.1567 -6.486328,4.7009 -6.486328,8.720697 v 56.138707 c 0,4.0197 2.636818,7.5639 6.486328,8.7207 55.47912,16.67 106.318115,46.0231 148.494155,85.7344 2.92671,2.7555 7.31357,3.2658 10.79492,1.2559 l 48.61719,-28.0704 c 3.48117,-2.0098 5.2337,-6.0642 4.31054,-9.9765 -13.30291,-56.3813 -13.30291,-115.085507 0,-171.466804 0.92316,-3.9123 -0.82937,-7.9668 -4.31054,-9.9766 l -48.61719,-28.0703 c -1.52309,-0.8793 -3.22088,-1.2754 -4.89258,-1.2129 z m 10.32617,30.1543 c 1.46784,0.038 2.94756,0.431 4.3086,1.2168 l 7.88671,4.5547 c 4.35531,2.5145 5.84658,8.0823 3.33204,12.4375 l -27.16602,47.052697 c -1.67092,2.894297 -1.62313,6.472607 0.125,9.320307 7.63341,12.4259 7.63341,28.0878 0,40.5137 -1.74932,2.8476 -1.7973,6.4241 -0.125,9.3184 l 27.16602,47.0547 c 2.51454,4.3552 1.02327,9.9229 -3.33204,12.4375 l -7.88671,4.5527 c -4.35531,2.5146 -9.92506,1.0233 -12.43946,-3.332 l -27.16601,-47.0528 c -1.67113,-2.8944 -4.79387,-4.6418 -8.13477,-4.5508 -14.57796,0.3978 -28.14138,-7.4321 -35.08594,-20.2558 -1.59138,-2.9389 -4.66364,-4.7695 -8.00587,-4.7695 H 46.871302 c -5.02909,0 -9.107422,-4.0785 -9.107422,-9.1075 v -9.1054 c 0,-5.029 4.078332,-9.1055 9.107422,-9.1055 h 54.332028 c 3.34223,0 6.41449,-1.8306 8.00587,-4.7695 6.94456,-12.823704 20.50798,-20.655504 35.08594,-20.257804 3.3409,0.091 6.46364,-1.6546 8.13477,-4.5489 l 27.16601,-47.0527 c 1.72865,-2.9943 4.90161,-4.6347 8.13086,-4.5508 z"
       id="path4524-4-9"
       inkscape:connector-curvature="0" /></g></svg>
